<?xml version="1.0" encoding="utf-8"?>
<!-- Generator: Adobe Illustrator 17.0.0, SVG Export Plug-In . SVG Version: 6.00 Build 0)  -->
<!DOCTYPE svg PUBLIC "-//W3C//DTD SVG 1.1//EN" "http://www.w3.org/Graphics/SVG/1.1/DTD/svg11.dtd">
<svg version="1.1" id="Layer_1" xmlns="http://www.w3.org/2000/svg" xmlns:xlink="http://www.w3.org/1999/xlink" x="0px" y="0px"
	 width="500px" height="500px" viewBox="0 0 500 500" enable-background="new 0 0 500 500" xml:space="preserve">
<g>
	<g>
		<path fill="#805AD5" d="M149.688,154.404c-0.094,0.107-0.155,0.268-0.227,0.392c2.219-0.128,4.439-0.252,6.658-0.392
			C153.976,154.404,151.832,154.404,149.688,154.404z"/>
		<path fill="#805AD5" d="M445.334,423.812c-18.759,15.742-39.083,29.691-60.906,40.845c-18.866,9.642-38.828,17.153-59.463,22
			c-18.627,4.376-37.747,6.565-56.88,6.551c-17.848-0.013-35.674-1.932-53.157-5.502c-16.457-3.361-32.604-8.173-48.293-14.16
			c-14.503-5.535-28.619-12.071-42.289-19.422c-12.068-6.489-23.794-13.614-35.145-21.288c-7.689-5.199-15.284-10.538-22.352-16.558
			c-8.824-7.516-17.647-15.031-26.471-22.547c-0.778-0.663-1.556-1.326-2.335-1.988c-0.24-0.205,0.066-1.391,0.107-1.711
			c0.121-0.944,0.264-1.885,0.429-2.822c0.349-1.977,0.798-3.937,1.355-5.865c2.671-9.237,7.981-17.59,15.97-23.098
			c7.739-5.336,17.08-6.892,25.954-9.417c8.31-2.364,16.546-4.999,24.648-8.002c17.805-6.6,35.084-14.997,50.49-26.172
			c11.581-8.401,22.04-18.404,30.43-30.022c0.363,7.409,3.155,15.113,7.384,21.152c1.549,2.202,2.825,4.61,4.095,6.979
			c2.026,3.778,3.946,7.612,5.837,11.458c10.892,22.143,20.97,44.696,31.03,67.226c7.084,15.865,14.099,31.762,21.031,47.695
			c0.188,0.432,0.375,0.863,0.563,1.295c0.908-7.588,1.815-15.175,2.723-22.763c1.464-12.243,2.929-24.485,4.393-36.728
			c0.351-2.936,0.702-5.871,1.053-8.807c0.063-0.527-0.89-1.229-1.219-1.584c-1.706-1.84-3.412-3.68-5.117-5.521
			c-3.567-3.848-7.134-7.696-10.701-11.544c-0.358-0.386-1.356-1.94-1.913-1.697c-1.952,0.85-3.904,1.701-5.856,2.551
			c6.554-7.118,13.107-14.236,19.661-21.353c0.801-0.87,1.348-1.102,2.526-1.508c3.721-1.282,7.754-1.866,11.677-1.447
			c9.777,1.044,16.888,9.387,22.409,16.803c1.883,2.529,3.686,5.142,5.283,7.863c-2.623-1.738-5.246-3.475-7.87-5.213
			c-1.611,4.706-3.221,9.412-4.832,14.118c-1.012,2.958-1.922,5.815-1.607,9.02c0.12,1.225,0.419,2.392,0.735,3.571
			c2.25,8.399,4.501,16.798,6.751,25.197c3.33,12.43,6.661,24.86,9.991,37.289c1.824,6.806,3.647,13.612,5.471,20.418
			c0.005,0.02,0.01,0.039,0.016,0.059c-0.04-12.795-0.146-25.59-0.281-38.384c-0.262-24.857-0.624-49.718-1.442-74.564
			c-0.403-12.242-0.73-24.554-2.004-36.744c4.342,3.16,8.737,6.251,13.169,9.284c5.729,3.922,11.513,8,17.742,11.1
			c11.674,5.81,23.88,10.662,35.926,15.633c6.748,2.785,13.513,5.532,20.307,8.206c4.362,1.717,8.728,3.489,13.185,4.95
			c8.536,2.798,17.662,7.101,21.73,15.669c1.15,2.422,1.852,5.104,2.667,7.651c0.458,1.431,0.916,2.862,1.374,4.293
			c3.572,11.158,7.145,22.317,10.717,33.475C444.463,421.091,444.899,422.451,445.334,423.812z"/>
		<path fill="#805AD5" d="M138.476,249.041c-0.303,6.551-0.669,13.1-1.054,19.647c-0.858,14.586-1.855,29.166-3.08,43.726
			c-1.264,15.026-2.671,30.078-4.982,44.985c-0.454,2.932-0.95,5.858-1.528,8.769c-0.559,2.816-1.385,5.61-1.642,8.476
			c-0.372,4.146,0.736,8.479,5.269,9.515c4.529,1.035,9.601-0.656,13.81-2.211c5.046-1.865,9.888-4.28,14.586-6.888
			c2.574-1.429,5.123-2.917,7.597-4.514c0.215-0.139,0.256-0.638,0.325-0.865c0.316-1.039,0.633-2.077,0.949-3.116
			c2.91-9.556,5.82-19.112,8.73-28.668c3.756-12.332,7.511-24.665,11.267-36.997c2.219-7.288,4.439-14.576,6.658-21.863
			c0.112-0.368,0.269-0.47-0.073-0.646c-0.951-0.491-1.903-0.983-2.854-1.474c-4.293-2.217-8.586-4.434-12.878-6.65
			c-11.011-5.686-22.022-11.373-33.034-17.059C143.853,251.818,141.165,250.429,138.476,249.041z"/>
		<path fill="#805AD5" d="M149.688,154.404c-0.094,0.107-0.155,0.268-0.227,0.392c2.219-0.128,4.439-0.252,6.658-0.392
			C153.976,154.404,151.832,154.404,149.688,154.404z"/>
		<path fill="#805AD5" d="M407.275,218.385c1.724-2.285,2.526-5.333,3.246-8.053c0.956-3.613,1.639-7.299,2.224-10.988
			c0.482-3.037,0.888-6.086,1.231-9.142c0.089-0.794,0.174-1.589,0.252-2.384c0.055-0.562,0.353-0.92,0.648-1.417
			c0.373-0.627,0.745-1.254,1.118-1.881c0.127-0.214,0.277-0.375,0.277-0.622c0-1.061,0-2.122,0-3.183c0-2.724,0-5.447,0-8.171
			c0-0.555-1.333-0.823-1.778-1.016c-1.494-0.65-3.013-1.242-4.553-1.772c-2.748-0.946-5.564-1.694-8.421-2.227
			c-4.965-0.925-10.047-1.19-15.081-0.793c-6.748,0.533-13.49,2.206-19.628,5.083c-0.671,0.314-1.335,0.644-1.985,0.999
			c-0.134,0.073-0.44,0.334-0.599,0.326c-1.766-0.08-3.533-0.16-5.299-0.24c-5.465-0.248-10.931-0.496-16.396-0.744
			c-3.81-0.173-7.352-1.974-10.845-3.339c-2.593-1.013-5.253-1.653-7.962-2.277c-3.142-0.725-6.302-1.376-9.488-1.875
			c-12.832-2.012-26.105-1.833-39.02-0.817c-13.016,1.024-25.941,3.085-38.734,5.664c-12.512,2.523-25.133,4.835-37.07,9.465
			c-5.765,2.236-11.49,4.663-17.103,7.258c-5.435,2.513-10.758,5.418-15.302,9.359c-2.22,1.925-4.143,4.087-5.858,6.469
			c-0.819,1.137-1.602,2.299-2.397,3.453c-0.702,1.017-1.385,2.369-2.433,3.072c-1.412,0.946-3.422,0.479-4.378-0.896
			c-1.328-1.909,0.327-4.304,1.224-6.034c2.639-5.089,6.628-9.056,11.023-12.667c4.489-3.688,9.366-6.884,14.454-9.68
			c10.587-5.819,22.047-9.851,33.585-13.321c11.883-3.573,23.912-6.391,36.159-8.396c24.759-4.053,49.858-5.468,74.814-7.779
			c22.178-2.054,44.498-3.14,66.49-6.844c7.147-1.204,14.336-2.795,21.021-5.661c5.988-2.568,11.941-6.408,14.91-12.425
			c2.354-4.772,2.976-11.315,0.148-16.031c-2.395-3.995-6.599-6.663-10.688-8.663c-5.368-2.625-11.165-4.346-16.964-5.725
			c-6.318-1.503-12.737-2.568-19.175-3.395c-9.525-1.224-19.129-1.957-28.73-2.228c-0.738-0.021-1.476-0.039-2.215-0.049
			c-0.265-0.004-0.459-0.728-0.56-0.932c-1.663-3.396-3.342-6.785-5.029-10.169c-6.016-12.066-12.123-24.094-18.555-35.944
			c-2.775-5.113-5.587-10.224-8.694-15.145c-1.55-2.455-3.183-4.695-5.235-6.743c-4.01-4.001-8.601-7.089-13.917-9.105
			c-10.528-3.992-22.272-4.341-33.384-3.785c-9.345,0.468-18.642,1.727-27.847,3.373c-11.769,2.105-23.525,4.704-34.977,8.153
			c-15.844,4.772-31.827,11.383-44.605,22.144c-6.761,5.694-12.707,12.775-15.782,21.158c-1.147,3.127-2.118,6.706-1.89,10.081
			c0.032,0.472-0.055,0.978-0.084,1.449c-0.108,1.767-0.215,3.534-0.323,5.301c-0.358,5.882-0.716,11.765-1.074,17.647
			c-0.581,9.541-1.161,19.082-1.742,28.623c-0.018,0.289-0.988,0.38-1.225,0.444c-1.544,0.421-3.083,0.86-4.619,1.312
			c-5.362,1.578-10.681,3.309-15.933,5.22c-6.301,2.293-12.545,4.831-18.492,7.939c-4.815,2.516-9.959,5.461-13.409,9.768
			c-2.627,3.28-3.318,7.307-0.7,10.835c3.103,4.181,8.667,6.269,13.448,7.771c10.929,3.434,22.657,4.608,34.06,5.148
			c1.773,0.084,3.48,0.111,5.249,0.018c8.597-0.453,17.192-0.937,25.785-1.443c-2.328,4.188-4.655,8.375-6.983,12.563
			c-5.079,9.137-7.421,19.206-8.882,29.478c-0.824,5.795-1.437,11.617-2.288,17.408c-0.718,4.889-1.703,9.686-1.825,14.643
			c-0.227,9.191,1.55,18.381,4.658,27.01c6.267,17.395,18.137,33.564,34.027,43.294c6.205,3.799,13.124,6.407,20.055,8.552
			c7.038,2.178,14.265,3.737,21.569,4.699c18.257,2.405,36.854,1.042,54.796-2.917c11.357-2.506,22.475-6.037,33.288-10.309
			c5.576-2.203,11.193-4.474,16.455-7.364c4.621-2.538,8.982-5.544,13.008-8.947c4.024-3.401,7.712-7.197,11.006-11.308
			c1.654-2.064,3.209-4.207,4.659-6.419c0.988-1.507,1.819-3.028,3.05-4.348c4.907-5.264,11.051-9.216,17.659-12.002
			c13.77-5.805,29.221-6.963,44.005-6.412c12.266,0.457,24.501,2.168,36.486,4.797c2.957,0.649,5.915,1.335,8.827,2.168
			c-0.994-6.732-4.68-12.754-9.058-17.831c-4.842-5.615-10.671-10.344-16.757-14.544c-8.764-6.049-18.257-11.214-28.061-15.377
			C407.867,218.629,407.571,218.505,407.275,218.385z M145.584,131.998c18.095-3.06,36.172-6.226,54.251-9.378
			c11.803-2.058,23.607-4.116,35.41-6.173c4.473-0.78,8.945-1.559,13.418-2.337c9.979-1.735,19.958-3.471,29.937-5.206
			c12.758-2.219,25.517-4.438,38.275-6.656c8.026-1.396,16.051-2.791,24.077-4.187c0.572-0.099,1.149-0.223,1.727-0.279
			c4.801-0.469,8.815,4.014,7.816,8.737c-0.664,3.137-3.341,5.428-6.501,5.743c-0.454,0.045-0.908,0.091-1.362,0.136
			c-6.516,0.65-13.032,1.301-19.548,1.951c-11.507,1.148-23.014,2.297-34.521,3.445c-13.126,1.31-26.251,2.62-39.377,3.93
			c-11.372,1.135-22.744,2.27-34.116,3.405c-6.246,0.623-12.492,1.247-18.738,1.87C179.418,128.687,162.508,130.42,145.584,131.998
			C161.97,129.228,162.145,130.454,145.584,131.998z M396.829,179.754c1.027,0.457,2.054,0.914,3.08,1.371
			c0.341,0.152,1.958,0.6,2.016,1.002c0.288,2.009,0.425,4.046,0.484,6.074c0.211,7.144-0.422,15.907-5.581,21.394
			c0.562-3.303,0.884-6.659,1.093-10C398.334,193,398.267,186.23,396.829,179.754z M317.72,183.83
			c1.219,0.304,12.802,2.956,12.771,3.187c-0.601,4.368-1.758,8.727-3.221,12.878c-1.194,3.388-2.671,6.715-4.657,9.719
			c-0.944,1.427-2.009,2.782-3.233,3.981c-0.588,0.576-1.213,1.116-1.877,1.605c-0.309,0.228-1.692,1.394-2.066,1.276
			c-0.046-0.015,2.169-10.537,2.273-11.193C318.82,198.274,319.443,190.79,317.72,183.83z M299.885,248.64
			c-9.029-0.136-18.408-1.533-26.365-6.048c-5.771-3.274-10.346-8.164-13.417-14.029c-2.84-5.425-4.412-11.408-5.529-17.398
			c-0.35-1.876-0.577-3.721-1.71-5.327c-1.278-1.81-3.304-3.029-5.508-3.279c-1.006-0.114-1.984,0.03-2.982,0.132
			c-10.529,1.084-21.058,2.168-31.587,3.252c-9.464,0.974-18.928,1.949-28.392,2.923c-0.145,0.015-0.29,0.03-0.435,0.045
			c4.309-2.062,8.617-4.123,12.926-6.185c6.066-2.902,12.072-5.863,18.477-7.978c11.828-3.905,24.237-4.953,36.56-6.204
			c1.625-0.374,3.096-0.771,4.792-0.406c3.305,0.712,4.731,3.802,5.224,6.872c0.632,3.933,0.886,7.911,1.621,11.832
			c0.985,5.257,2.584,10.472,5.374,15.068c3.217,5.299,7.991,9.385,13.752,11.692c8.244,3.3,17.673,3.152,26.317,1.826
			c12.617-1.935,25.003-7.98,31.745-19.219c1.112-1.853,2.152-3.865,2.728-5.961c1.164-4.235,2.489-8.436,4.569-12.326
			c1.17-2.188,2.626-4.499,4.746-5.883c2.416-1.576,5.53-0.951,7.764,0.694c2.723,2.004,4.188,5.346,5.048,8.518
			c0.41,1.511,0.769,3.102,0.841,4.671c0.066,1.454-0.274,3.814,0.719,5.027c-2.369-2.909-6.688-4.773-10.474-4.476
			c-1.557,0.122-3.001,0.791-3.894,2.107c-0.912,1.344-1.012,2.9-1.282,4.447c-0.818,4.685-3.126,9.157-5.749,13.07
			c-8.701,12.981-23.088,20.775-38.523,22.257C304.797,248.588,302.34,248.678,299.885,248.64
			C263.977,248.099,335.475,249.197,299.885,248.64z M348.341,241.076c4.312-2.732,8.266-6.23,11.671-10.014
			c2.941-3.268,5.526-6.928,7.238-10.994c0.175-0.415,1.201-3.603,1.339-3.568c0.328,0.084,0.655,0.17,0.982,0.258
			c11.321,3.029,22.456,6.988,33.176,11.714c13.208,5.823,26.785,13.038,36.646,23.815c-10.823-2.83-21.776-5.16-32.801-7.05
			C387.447,241.956,367.778,239.744,348.341,241.076z"/>
	</g>
</g>
</svg>
