<svg xmlns="http://www.w3.org/2000/svg" viewBox="0 0 24 24">
  <path d="M12 .297c-6.63 0-12 5.373-12 12 0 5.303 3.438 9.8 8.205 11.387.6.113.82-.258.82-.577 0-.285-.01-1.04-.015-2.04-3.338.724-4.042-1.61-4.042-1.61-.546-1.387-1.333-1.757-1.333-1.757-1.09-.745.082-.73.082-.73 1.205.083 1.84 1.237 1.84 1.237 1.07 1.835 2.807 1.305 3.492.997.108-.776.418-1.305.762-1.605-2.665-.303-5.466-1.332-5.466-5.931 0-1.31.468-2.382 1.236-3.221-.124-.303-.536-1.523.117-3.176 0 0 1.008-.322 3.301 1.23.957-.266 1.984-.399 3.003-.404 1.02.005 2.047.138 3.006.404 2.29-1.552 3.297-1.23 3.297-1.23.655 1.653.243 2.873.12 3.176.77.839 1.235 1.911 1.235 3.221 0 4.61-2.807 5.625-5.479 5.921.43.372.823 1.103.823 2.222 0 1.604-.014 2.896-.014 3.289 0 .321.216.694.825.576C20.565 22.092 24 17.592 24 12.297 24 5.67 18.627.297 12 .297z"/>
</svg>
